<svg xmlns="http://www.w3.org/2000/svg" width="11.992" height="12.267" viewBox="0 0 11.992 12.267">
  <path id="question-circle-solid" d="M19.251,13.391a6.066,6.066,0,0,1-6,6.133,6.066,6.066,0,0,1-6-6.133,6.067,6.067,0,0,1,6-6.133A6.067,6.067,0,0,1,19.251,13.391ZM13.415,9.286A3.117,3.117,0,0,0,10.6,10.863a.3.3,0,0,0,.066.4l.839.651a.286.286,0,0,0,.4-.052c.432-.56.728-.885,1.385-.885.494,0,1.1.325,1.1.815,0,.37-.3.561-.787.84-.569.326-1.321.732-1.321,1.747v.1a.294.294,0,0,0,.29.3h1.354a.294.294,0,0,0,.29-.3v-.033c0-.7,2.011-.733,2.011-2.638A2.781,2.781,0,0,0,13.415,9.286Zm-.161,6.133a1.138,1.138,0,1,0,1.112,1.138A1.126,1.126,0,0,0,13.254,15.419Z" transform="translate(-7.258 -7.258)" fill="#9c9b99"/>
</svg>
